<svg xmlns="http://www.w3.org/2000/svg">
    <symbol id="facebook" viewBox="-143 145 512 512">
        <path d="M113,145c-141.4,0-256,114.6-256,256s114.6,256,256,256s256-114.6,256-256S254.4,145,113,145z M169.5,357.6l-2.9,38.3h-39.3
	v133H77.7v-133H51.2v-38.3h26.5v-25.7c0-11.3,0.3-28.8,8.5-39.7c8.7-11.5,20.6-19.3,41.1-19.3c33.4,0,47.4,4.8,47.4,4.8l-6.6,39.2
	c0,0-11-3.2-21.3-3.2c-10.3,0-19.5,3.7-19.5,14v29.9H169.5z"/>
    </symbol>
    <symbol id="linkedin" viewBox="-143 145 512 512">
        <path d="M113,145c-141.4,0-256,114.6-256,256s114.6,256,256,256s256-114.6,256-256S254.4,145,113,145z M41.4,508.1H-8.5V348.4h49.9
	V508.1z M15.1,328.4h-0.4c-18.1,0-29.8-12.2-29.8-27.7c0-15.8,12.1-27.7,30.5-27.7c18.4,0,29.7,11.9,30.1,27.7
	C45.6,316.1,33.9,328.4,15.1,328.4z M241,508.1h-56.6v-82.6c0-21.6-8.8-36.4-28.3-36.4c-14.9,0-23.2,10-27,19.6
	c-1.4,3.4-1.2,8.2-1.2,13.1v86.3H71.8c0,0,0.7-146.4,0-159.7h56.1v25.1c3.3-11,21.2-26.6,49.8-26.6c35.5,0,63.3,23,63.3,72.4V508.1z
	"/>
    </symbol>
    <symbol id="instagram" viewBox="-143 145 512 512">
        <g>
            <path d="M113,446c24.8,0,45.1-20.2,45.1-45.1c0-9.8-3.2-18.9-8.5-26.3c-8.2-11.3-21.5-18.8-36.5-18.8s-28.3,7.4-36.5,18.8
		c-5.3,7.4-8.5,16.5-8.5,26.3C68,425.8,88.2,446,113,446z"/>
            <polygon points="211.4,345.9 211.4,308.1 211.4,302.5 205.8,302.5 168,302.6 168.2,346 	"/>
            <path d="M183,401c0,38.6-31.4,70-70,70c-38.6,0-70-31.4-70-70c0-9.3,1.9-18.2,5.2-26.3H10v104.8C10,493,21,504,34.5,504h157
		c13.5,0,24.5-11,24.5-24.5V374.7h-38.2C181.2,382.8,183,391.7,183,401z"/>
            <path d="M113,145c-141.4,0-256,114.6-256,256s114.6,256,256,256s256-114.6,256-256S254.4,145,113,145z M241,374.7v104.8
		c0,27.3-22.2,49.5-49.5,49.5h-157C7.2,529-15,506.8-15,479.5V374.7v-52.3c0-27.3,22.2-49.5,49.5-49.5h157
		c27.3,0,49.5,22.2,49.5,49.5V374.7z"/>
        </g>
    </symbol>
    <symbol id="skype" viewBox="-143 145 512 512">
        <g>
            <path d="M113,145c-141.4,0-256,114.6-256,256s114.6,256,256,256s256-114.6,256-256S254.4,145,113,145z M170.2,530.8
		c-12.1,0-23.5-3-33.5-8.4c-7.2,1.3-14.7,2-22.4,2c-67.4,0-122.1-54.7-122.1-122.1c0-8.4,0.8-16.6,2.5-24.5
		c-6.1-10.5-9.7-22.7-9.7-35.8c0-39.1,31.7-70.8,70.8-70.8c13.8,0,26.8,4,37.7,10.9c6.8-1.2,13.8-1.8,20.9-1.8
		c67.4,0,122.1,54.7,122.1,122.1c0,9-1,17.7-2.8,26.2c4.7,9.5,7.4,20.2,7.4,31.4C241,499.1,209.3,530.8,170.2,530.8z"/>
            <path d="M166.8,397.4c-5.7-3.7-12.8-6.9-20.9-9.5c-8-2.6-17.1-4.9-27-7.1c-7.8-1.8-13.5-3.2-16.9-4.1c-3.3-0.9-6.6-2.2-9.8-3.8
		c-3.1-1.6-5.5-3.4-7.3-5.5c-1.6-2-2.4-4.3-2.4-7.1c0-4.5,2.5-8.4,7.6-11.7c5.3-3.5,12.4-5.2,21.2-5.2c9.4,0,16.3,1.6,20.4,4.7
		c4.2,3.2,7.9,7.8,11,13.6c2.6,4.5,5,7.7,7.3,9.7c2.4,2.2,6,3.3,10.5,3.3c5,0,9.2-1.8,12.5-5.2c3.3-3.5,5-7.4,5-11.8
		c0-4.5-1.3-9.2-3.8-13.9c-2.5-4.7-6.5-9.1-11.9-13.3c-5.3-4.2-12.1-7.6-20.2-10.1c-8-2.5-17.6-3.7-28.5-3.7
		c-13.6,0-25.7,1.9-35.8,5.7c-10.3,3.8-18.2,9.3-23.7,16.4c-5.5,7.2-8.3,15.5-8.3,24.7c0,9.7,2.7,17.9,7.9,24.5
		c5.2,6.5,12.2,11.6,21,15.4c8.6,3.6,19.3,6.9,32,9.6c9.3,2,16.9,3.8,22.4,5.6c5.3,1.7,9.7,4.1,13,7.2c3.2,3,4.7,6.8,4.7,11.6
		c0,6.1-2.9,11.1-9,15.2c-6.2,4.3-14.5,6.4-24.6,6.4c-7.3,0-13.3-1.1-17.7-3.2c-4.4-2.1-7.8-4.7-10.2-7.9c-2.5-3.3-4.8-7.5-7-12.4
		c-1.9-4.6-4.4-8.1-7.2-10.5c-2.9-2.5-6.6-3.7-10.8-3.7c-5.1,0-9.4,1.6-12.7,4.7c-3.4,3.2-5.1,7.1-5.1,11.5c0,7.2,2.6,14.6,7.8,22.1
		c5.1,7.4,11.9,13.4,20.1,17.8c11.5,6.1,26.2,9.2,43.7,9.2c14.6,0,27.4-2.3,38.1-6.7c10.8-4.5,19.2-10.8,24.8-18.8
		c5.7-8,8.5-17.2,8.5-27.2c0-8.4-1.7-15.6-5-21.5C177.3,406.1,172.7,401.2,166.8,397.4z"/>
        </g>
    </symbol>
    <symbol id="search-icon" viewBox="0 0 50 50">
        <path d="M 21 3 C 11.621094 3 4 10.621094 4 20 C 4 29.378906 11.621094 37 21 37 C 24.710938 37 28.140625 35.804688 30.9375
         33.78125 L 44.09375 46.90625 L 46.90625 44.09375 L 33.90625 31.0625 C 36.460938 28.085938 38 24.222656 38 20 C 38 10.621094
          30.378906 3 21 3 Z M 21 5 C 29.296875 5 36 11.703125 36 20 C 36 28.296875 29.296875 35 21 35 C 12.703125 35 6 28.296875 6 20
           C 6 11.703125 12.703125 5 21 5 Z"/>
    </symbol>
    <symbol id="slash" viewBox="0 0 16 16">
        <path d="M11.126 2.601a.75.75 0 00-1.025.273l-5.5 9.5a.75.75 0 001.298.752l5.5-9.5a.75.75 0 00-.273-1.025z" clip-rule="evenodd"/>
    </symbol>
</svg>
